<svg width="9" height="15" viewBox="0 0 9 15" fill="none" xmlns="http://www.w3.org/2000/svg">
<path d="M5.22798 14.8644H2.85934C2.4637 14.8644 2.14187 14.5538 2.14187 14.1721V9.01711H0.759955C0.364317 9.01711 0.0424805 8.70646 0.0424805 8.32482V6.1159C0.0424805 5.73415 0.364317 5.42362 0.759955 5.42362H2.14187V4.31747C2.14187 3.22068 2.4988 2.28755 3.17396 1.61911C3.85216 0.947625 4.79995 0.592773 5.91487 0.592773L7.72131 0.595604C8.11627 0.596258 8.43754 0.906794 8.43754 1.28789V3.33882C8.43754 3.72057 8.11582 4.0311 7.72029 4.0311L6.50404 4.03154C6.13312 4.03154 6.03866 4.10329 6.01846 4.12529C5.98517 4.16176 5.94557 4.26488 5.94557 4.54961V5.42351H7.62889C7.75561 5.42351 7.87839 5.45367 7.9839 5.51051C8.21151 5.63322 8.35302 5.86525 8.35302 6.11601L8.35212 8.32493C8.35212 8.70646 8.03028 9.017 7.63464 9.017H5.94557V14.1721C5.94557 14.5538 5.62362 14.8644 5.22798 14.8644ZM3.00898 14.0277H5.07834V8.64255C5.07834 8.38765 5.29332 8.18034 5.55738 8.18034H7.48501L7.4858 6.26028H5.55726C5.2932 6.26028 5.07834 6.05297 5.07834 5.79807V4.54961C5.07834 4.22274 5.11276 3.85101 5.36847 3.57161C5.67744 3.23386 6.16437 3.19488 6.50381 3.19488L7.57043 3.19444V1.43205L5.91419 1.42944C4.12243 1.42944 3.00898 2.53613 3.00898 4.31747V5.79807C3.00898 6.05286 2.79412 6.26028 2.53006 6.26028H0.909589V8.18034H2.53006C2.79412 8.18034 3.00898 8.38765 3.00898 8.64255V14.0277Z" fill="white"/>
</svg>
