<svg width="18" height="18" viewBox="0 0 18 18" fill="none" xmlns="http://www.w3.org/2000/svg">
<path d="M12.772 0.708008H4.87519C2.69453 0.708008 0.926758 2.47578 0.926758 4.65644V12.5533C0.926758 14.7339 2.69453 16.5017 4.87519 16.5017H12.772C14.9527 16.5017 16.7205 14.7339 16.7205 12.5533V4.65644C16.7205 2.47578 14.9527 0.708008 12.772 0.708008Z" stroke="white" stroke-linecap="round" stroke-linejoin="round"/>
<path d="M11.9825 8.10728C12.08 8.76449 11.9677 9.4357 11.6617 10.0254C11.3557 10.6152 10.8716 11.0934 10.2781 11.3921C9.68464 11.6908 9.0121 11.7948 8.35614 11.6892C7.70017 11.5837 7.0942 11.274 6.6244 10.8042C6.1546 10.3344 5.84489 9.7284 5.73934 9.07244C5.63379 8.41648 5.73776 7.74394 6.03647 7.15047C6.33517 6.55701 6.81341 6.07284 7.40314 5.76684C7.99288 5.46084 8.66409 5.34858 9.3213 5.44604C9.99168 5.54544 10.6123 5.85783 11.0915 6.33704C11.5707 6.81626 11.8831 7.43689 11.9825 8.10728Z" stroke="white" stroke-linecap="round" stroke-linejoin="round"/>
<path d="M13.167 4.2616H13.1735" stroke="white" stroke-linecap="round" stroke-linejoin="round"/>
</svg>
