<svg width="16" height="15" viewBox="0 0 16 15" fill="none" xmlns="http://www.w3.org/2000/svg">
<path d="M14.7853 5.13789L10.3718 4.49646L8.39887 0.496676C8.34499 0.387165 8.25634 0.298512 8.14682 0.244626C7.87218 0.10904 7.53842 0.222028 7.4011 0.496676L5.42815 4.49646L1.01466 5.13789C0.892977 5.15527 0.781727 5.21263 0.696551 5.29955C0.593578 5.40538 0.536835 5.54777 0.538791 5.69542C0.540747 5.84308 0.601241 5.98391 0.70698 6.08699L3.9002 9.20025L3.14579 13.5964C3.1281 13.6986 3.13941 13.8038 3.17845 13.9C3.2175 13.9961 3.2827 14.0794 3.36667 14.1404C3.45064 14.2014 3.55002 14.2376 3.65354 14.245C3.75706 14.2524 3.86058 14.2306 3.95235 14.1822L7.89999 12.1067L11.8476 14.1822C11.9554 14.2395 12.0806 14.2586 12.2005 14.2378C12.503 14.1856 12.7063 13.8988 12.6542 13.5964L11.8998 9.20025L15.093 6.08699C15.1799 6.00181 15.2373 5.89056 15.2547 5.76888C15.3016 5.46468 15.0895 5.18308 14.7853 5.13789Z" fill="#FE5269"/>
</svg>
